<?xml version="1.0" standalone="no"?>
<!DOCTYPE svg PUBLIC "-//W3C//DTD SVG 20010904//EN"
 "http://www.w3.org/TR/2001/REC-SVG-20010904/DTD/svg10.dtd">
<svg version="1.0" xmlns="http://www.w3.org/2000/svg"
 width="204.000000pt" height="72.000000pt" viewBox="0 0 204.000000 72.000000"
 preserveAspectRatio="xMidYMid meet">

<g transform="translate(0.000000,72.000000) scale(0.100000,-0.100000)"
fill="#fff" stroke="none">
<path d="M247 589 c-22 -13 -22 -47 0 -72 15 -15 19 -44 23 -151 l5 -131 27
-3 c34 -4 37 8 41 137 2 88 4 95 28 113 23 17 30 18 50 8 13 -7 27 -18 31 -24
4 -6 8 -59 8 -118 0 -91 3 -108 17 -117 11 -6 24 -6 35 0 16 8 18 25 18 128 0
106 -2 121 -23 152 -32 48 -85 66 -145 50 -39 -10 -47 -10 -54 3 -14 25 -41
36 -61 25z"/>
<path d="M616 555 c-49 -26 -55 -42 -56 -147 0 -95 1 -98 31 -133 34 -39 92
-59 136 -49 94 23 122 72 123 215 0 98 -7 119 -42 119 -28 0 -38 -33 -38 -133
0 -108 -11 -127 -73 -127 -51 0 -67 27 -67 112 0 65 1 69 27 79 44 16 53 38
27 63 -19 20 -31 20 -68 1z"/>
<path d="M985 563 c-35 -9 -82 -51 -100 -89 -27 -57 -17 -143 22 -191 36 -46
92 -68 142 -56 67 16 68 82 1 75 -50 -5 -78 6 -95 38 -22 43 -19 84 11 119 33
40 75 42 109 5 39 -42 32 -54 -19 -34 -41 15 -74 -8 -60 -44 14 -36 127 -48
164 -18 18 15 21 24 15 55 -18 94 -109 161 -190 140z"/>
<path d="M1169 554 c-14 -17 -15 -16 63 -203 46 -113 72 -141 111 -124 17 8
39 50 84 157 61 144 66 169 37 180 -28 11 -42 -7 -89 -114 -26 -61 -50 -110
-54 -110 -3 0 -21 37 -38 83 -55 138 -82 169 -114 131z"/>
<path d="M1565 550 c-185 -92 -68 -394 120 -311 45 20 46 20 65 1 24 -24 34
-25 54 -4 21 20 20 26 -4 57 -14 18 -20 40 -20 79 0 64 -17 102 -48 106 -24 4
-24 3 -26 -75 -1 -67 -33 -105 -85 -101 -67 6 -99 96 -54 155 18 24 28 28 71
28 28 0 56 5 62 11 19 19 2 51 -32 63 -43 15 -57 14 -103 -9z"/>
<path d="M1590 411 c-13 -25 -4 -48 21 -56 38 -12 65 35 37 63 -18 18 -46 14
-58 -7z"/>
</g>
</svg>
